<svg width="108" height="108" viewBox="0 0 108 108" fill="none" xmlns="http://www.w3.org/2000/svg">
<path fill-rule="evenodd" clip-rule="evenodd" d="M78.75 45.7863C78.75 57.1467 63.668 77.1565 56.9648 85.5477C55.418 87.4841 52.4531 87.4841 50.9062 85.5477C44.332 77.1565 29.25 57.1467 29.25 45.7863C29.25 32.1022 40.3359 21 54 21C67.6641 21 78.75 32.1022 78.75 45.7863ZM54.1755 65.234C65.5179 65.234 74.7128 56.0785 74.7128 44.7846C74.7128 33.4906 65.5179 24.3351 54.1755 24.3351C42.8331 24.3351 33.6383 33.4906 33.6383 44.7846C33.6383 56.0785 42.8331 65.234 54.1755 65.234Z" fill="black"/>
<path fill-rule="evenodd" clip-rule="evenodd" d="M54 62.0745C63.4177 62.0745 71.0266 54.4372 71.0266 45.0479C71.0266 35.6586 63.4177 28.0213 54 28.0213C44.5823 28.0213 36.9734 35.6586 36.9734 45.0479C36.9734 54.4372 44.5823 62.0745 54 62.0745ZM54.0877 58.8985C61.6978 58.8985 67.867 52.6974 67.867 45.0479C67.867 37.3984 61.6978 31.1972 54.0877 31.1972C46.4777 31.1972 40.3085 37.3984 40.3085 45.0479C40.3085 52.6974 46.4777 58.8985 54.0877 58.8985Z" fill="black"/>
<path d="M53.2979 39.6664C53.2979 41.9077 51.4903 43.7246 49.2606 43.7246C47.0309 43.7246 45.2234 41.9077 45.2234 39.6664C45.2234 37.4251 47.0309 35.6083 49.2606 35.6083C51.4903 35.6083 53.2979 37.4251 53.2979 39.6664Z" fill="black"/>
<path d="M61.7234 52.3702C61.7234 53.4421 60.8589 54.311 59.7925 54.311C58.7262 54.311 57.8617 53.4421 57.8617 52.3702C57.8617 51.2983 58.7262 50.4293 59.7925 50.4293C60.8589 50.4293 61.7234 51.2983 61.7234 52.3702Z" fill="black"/>
</svg>
